<?xml version="1.0" encoding="UTF-8" standalone="no"?>
<svg width="48px" height="48px" viewBox="0 0 48 48" version="1.1" xmlns="http://www.w3.org/2000/svg" xmlns:xlink="http://www.w3.org/1999/xlink">
    <!-- Generator: Sketch 46.2 (44496) - http://www.bohemiancoding.com/sketch -->
    <title>Scrolldown Button</title>
    <desc>Created with Sketch.</desc>
    <defs></defs>
    <g id="Panels" stroke="none" stroke-width="1" fill="none" fill-rule="evenodd">
        <g id="04-Constructor/Block-Settings/Structure-ulanding-Behavior" transform="translate(-83.000000, -967.000000)">
            <g id="Group-4" transform="translate(60.000000, 879.000000)">
                <g id="Normal-State" transform="translate(0.000000, 43.000000)">
                    <g id="Scrolldown-Button" transform="translate(23.000000, 45.000000)">
                        <g id="Button">
                            <circle id="Oval" fill="#000000" opacity="0.405142257" cx="23.75" cy="23.75" r="21.5"></circle>
                            <path d="M24,0 C10.7664,0 0,10.7664 0,24 C0,37.2336 10.7664,48 24,48 C37.2336,48 48,37.2336 48,24 C48,10.7664 37.2336,0 24,0 Z M24,45 C12.4206,45 3,35.5794 3,24 C3,12.4206 12.4206,3 24,3 C35.5794,3 45,12.4206 45,24 C45,35.5794 35.5794,45 24,45 Z" id="Shape" fill="#FFFFFF" fill-rule="nonzero"></path>
                            <path d="M35.0570667,22.7237333 L25.5,32.448 L25.5,12.5 C25.5,11.7634667 24.7365333,11 24,11 C23.2634667,11 22.5,11.7634667 22.5,12.5 L22.5,32.448 L12.9429333,22.7237333 C12.4218667,22.2026667 11.5781333,22.2026667 11.0576,22.7237333 C10.5370667,23.2448 10.5365333,24.0885333 11.0576,24.6090667 L23.0576,36.6090667 C23.3178667,36.8698667 23.6586667,37 24,37 C24.3413333,37 24.6821333,36.8698667 24.9429333,36.6096 L36.9429333,24.6096 C37.464,24.0885333 37.464,23.2448 36.9429333,22.7242667 C36.4218667,22.2037333 35.5781333,22.2032 35.0570667,22.7237333 Z" id="Shape" fill="#FFFFFF" fill-rule="nonzero"></path>
                        </g>
                    </g>
                </g>
            </g>
        </g>
    </g>
</svg>